<!-- Стилі для scss при використанні спрайтів -->
<!-- Для обгортки (div, a , span ...):
        - width (px), height (px), padding, transition
     Для тегу svg:
        - width (100%), height (100%), flex (для вирівнювання)
     Для тегу use:
        - кольори для svg -->

<svg xmlns="http://www.w3.org/2000/svg">
   <symbol id="glass" viewBox="0 0 24 24">
      <path
         d="M15.5 15H14.71L14.43 14.73C15.41 13.59 16 12.11 16 10.5C16 6.91 13.09 4 9.5 4C5.91 4 3 6.91 3 10.5C3 14.09 5.91 17 9.5 17C11.11 17 12.59 16.41 13.73 15.43L14 15.71V16.5L19 21.49L20.49 20L15.5 15V15ZM9.5 15C7.01 15 5 12.99 5 10.5C5 8.01 7.01 6 9.5 6C11.99 6 14 8.01 14 10.5C14 12.99 11.99 15 9.5 15Z" />
   </symbol>

   <symbol id="arrow" viewBox="0 0 24 24">
      <path d="M20 11H7.83L13.42 5.41L12 4L4 12L12 20L13.41 18.59L7.83 13H20V11Z" />
   </symbol>
</svg>